<mxfile host="app.diagrams.net" modified="2023-07-09T11:38:11.509Z" agent="Mozilla/5.0 (X11; Linux x86_64) AppleWebKit/537.36 (KHTML, like Gecko) Chrome/114.0.0.0 Safari/537.36" etag="lK_7icslSRG9nyRFc5d_" version="21.5.2" type="github">
  <diagram name="Page-1" id="1JTWjsL_UmjwNZJbQvjx">
    <mxGraphModel dx="1434" dy="673" grid="1" gridSize="10" guides="1" tooltips="1" connect="1" arrows="1" fold="1" page="1" pageScale="1" pageWidth="827" pageHeight="1169" math="0" shadow="0">
      <root>
        <mxCell id="0" />
        <mxCell id="1" parent="0" />
        <mxCell id="e2x56FFFjxfBK-EjwHHD-3" value="" style="verticalLabelPosition=bottom;verticalAlign=top;html=1;shape=mxgraph.basic.rect;fillColor2=none;strokeWidth=1;size=20;indent=5;" vertex="1" parent="1">
          <mxGeometry x="10" y="60" width="790" height="520" as="geometry" />
        </mxCell>
        <mxCell id="e2x56FFFjxfBK-EjwHHD-4" value="" style="verticalLabelPosition=bottom;verticalAlign=top;html=1;shape=mxgraph.basic.rect;fillColor2=none;strokeWidth=1;size=20;indent=5;fillColor=none;strokeColor=#ff0061;" vertex="1" parent="1">
          <mxGeometry x="420" y="150" width="360" height="400" as="geometry" />
        </mxCell>
        <mxCell id="e2x56FFFjxfBK-EjwHHD-5" value="" style="sketch=0;points=[[0,0,0],[0.25,0,0],[0.5,0,0],[0.75,0,0],[1,0,0],[0,1,0],[0.25,1,0],[0.5,1,0],[0.75,1,0],[1,1,0],[0,0.25,0],[0,0.5,0],[0,0.75,0],[1,0.25,0],[1,0.5,0],[1,0.75,0]];outlineConnect=0;fontColor=#232F3E;gradientColor=#F78E04;gradientDirection=north;fillColor=#D05C17;strokeColor=#ffffff;dashed=0;verticalLabelPosition=bottom;verticalAlign=top;align=center;html=1;fontSize=12;fontStyle=0;aspect=fixed;shape=mxgraph.aws4.resourceIcon;resIcon=mxgraph.aws4.eks;" vertex="1" parent="1">
          <mxGeometry x="420" y="150" width="50" height="50" as="geometry" />
        </mxCell>
        <mxCell id="e2x56FFFjxfBK-EjwHHD-6" value="&lt;font color=&quot;#ff0061&quot;&gt;EKS Cluster&lt;/font&gt;" style="text;html=1;strokeColor=none;fillColor=none;align=center;verticalAlign=middle;whiteSpace=wrap;rounded=0;" vertex="1" parent="1">
          <mxGeometry x="460" y="160" width="110" height="30" as="geometry" />
        </mxCell>
        <mxCell id="e2x56FFFjxfBK-EjwHHD-8" value="" style="sketch=0;html=1;dashed=0;whitespace=wrap;fillColor=#2875E2;strokeColor=#ffffff;points=[[0.005,0.63,0],[0.1,0.2,0],[0.9,0.2,0],[0.5,0,0],[0.995,0.63,0],[0.72,0.99,0],[0.5,1,0],[0.28,0.99,0]];verticalLabelPosition=bottom;align=center;verticalAlign=top;shape=mxgraph.kubernetes.icon;prIcon=pod" vertex="1" parent="1">
          <mxGeometry x="670" y="170" width="50" height="48" as="geometry" />
        </mxCell>
        <mxCell id="e2x56FFFjxfBK-EjwHHD-9" value="" style="sketch=0;html=1;dashed=0;whitespace=wrap;fillColor=#2875E2;strokeColor=#ffffff;points=[[0.005,0.63,0],[0.1,0.2,0],[0.9,0.2,0],[0.5,0,0],[0.995,0.63,0],[0.72,0.99,0],[0.5,1,0],[0.28,0.99,0]];verticalLabelPosition=bottom;align=center;verticalAlign=top;shape=mxgraph.kubernetes.icon;prIcon=pod" vertex="1" parent="1">
          <mxGeometry x="710" y="420" width="50" height="48" as="geometry" />
        </mxCell>
        <mxCell id="e2x56FFFjxfBK-EjwHHD-10" value="" style="sketch=0;html=1;dashed=0;whitespace=wrap;fillColor=#2875E2;strokeColor=#ffffff;points=[[0.005,0.63,0],[0.1,0.2,0],[0.9,0.2,0],[0.5,0,0],[0.995,0.63,0],[0.72,0.99,0],[0.5,1,0],[0.28,0.99,0]];verticalLabelPosition=bottom;align=center;verticalAlign=top;shape=mxgraph.kubernetes.icon;prIcon=pod" vertex="1" parent="1">
          <mxGeometry x="600" y="490" width="50" height="48" as="geometry" />
        </mxCell>
        <mxCell id="e2x56FFFjxfBK-EjwHHD-11" value="" style="sketch=0;html=1;dashed=0;whitespace=wrap;fillColor=#2875E2;strokeColor=#ffffff;points=[[0.005,0.63,0],[0.1,0.2,0],[0.9,0.2,0],[0.5,0,0],[0.995,0.63,0],[0.72,0.99,0],[0.5,1,0],[0.28,0.99,0]];verticalLabelPosition=bottom;align=center;verticalAlign=top;shape=mxgraph.kubernetes.icon;prIcon=pod" vertex="1" parent="1">
          <mxGeometry x="640" y="372" width="50" height="48" as="geometry" />
        </mxCell>
        <mxCell id="e2x56FFFjxfBK-EjwHHD-12" value="" style="sketch=0;html=1;dashed=0;whitespace=wrap;fillColor=#2875E2;strokeColor=#ffffff;points=[[0.005,0.63,0],[0.1,0.2,0],[0.9,0.2,0],[0.5,0,0],[0.995,0.63,0],[0.72,0.99,0],[0.5,1,0],[0.28,0.99,0]];verticalLabelPosition=bottom;align=center;verticalAlign=top;shape=mxgraph.kubernetes.icon;prIcon=pod" vertex="1" parent="1">
          <mxGeometry x="590" y="240" width="50" height="48" as="geometry" />
        </mxCell>
        <mxCell id="e2x56FFFjxfBK-EjwHHD-13" value="" style="sketch=0;html=1;dashed=0;whitespace=wrap;fillColor=#2875E2;strokeColor=#ffffff;points=[[0.005,0.63,0],[0.1,0.2,0],[0.9,0.2,0],[0.5,0,0],[0.995,0.63,0],[0.72,0.99,0],[0.5,1,0],[0.28,0.99,0]];verticalLabelPosition=bottom;align=center;verticalAlign=top;shape=mxgraph.kubernetes.icon;prIcon=pod" vertex="1" parent="1">
          <mxGeometry x="710" y="272" width="50" height="48" as="geometry" />
        </mxCell>
        <mxCell id="e2x56FFFjxfBK-EjwHHD-18" style="edgeStyle=orthogonalEdgeStyle;rounded=0;orthogonalLoop=1;jettySize=auto;html=1;entryX=0.5;entryY=1;entryDx=0;entryDy=0;entryPerimeter=0;exitX=0.7;exitY=0.479;exitDx=0;exitDy=0;exitPerimeter=0;" edge="1" parent="1" source="e2x56FFFjxfBK-EjwHHD-14">
          <mxGeometry relative="1" as="geometry">
            <mxPoint x="470" y="319" as="sourcePoint" />
            <mxPoint x="595" y="272" as="targetPoint" />
            <Array as="points">
              <mxPoint x="475" y="319" />
              <mxPoint x="550" y="319" />
              <mxPoint x="550" y="272" />
            </Array>
          </mxGeometry>
        </mxCell>
        <mxCell id="e2x56FFFjxfBK-EjwHHD-19" style="edgeStyle=orthogonalEdgeStyle;rounded=0;orthogonalLoop=1;jettySize=auto;html=1;entryX=0.5;entryY=0;entryDx=0;entryDy=0;entryPerimeter=0;" edge="1" parent="1" target="e2x56FFFjxfBK-EjwHHD-10">
          <mxGeometry relative="1" as="geometry">
            <mxPoint x="470" y="350" as="sourcePoint" />
            <mxPoint x="610" y="430" as="targetPoint" />
            <Array as="points">
              <mxPoint x="611" y="350" />
              <mxPoint x="611" y="490" />
            </Array>
          </mxGeometry>
        </mxCell>
        <mxCell id="e2x56FFFjxfBK-EjwHHD-20" style="edgeStyle=orthogonalEdgeStyle;rounded=0;orthogonalLoop=1;jettySize=auto;html=1;" edge="1" parent="1" source="e2x56FFFjxfBK-EjwHHD-14" target="e2x56FFFjxfBK-EjwHHD-8">
          <mxGeometry relative="1" as="geometry">
            <Array as="points">
              <mxPoint x="530" y="335" />
              <mxPoint x="530" y="194" />
            </Array>
          </mxGeometry>
        </mxCell>
        <mxCell id="e2x56FFFjxfBK-EjwHHD-21" style="edgeStyle=orthogonalEdgeStyle;rounded=0;orthogonalLoop=1;jettySize=auto;html=1;" edge="1" parent="1" source="e2x56FFFjxfBK-EjwHHD-14" target="e2x56FFFjxfBK-EjwHHD-11">
          <mxGeometry relative="1" as="geometry">
            <Array as="points">
              <mxPoint x="570" y="335" />
              <mxPoint x="570" y="396" />
            </Array>
          </mxGeometry>
        </mxCell>
        <mxCell id="e2x56FFFjxfBK-EjwHHD-23" style="edgeStyle=orthogonalEdgeStyle;rounded=0;orthogonalLoop=1;jettySize=auto;html=1;" edge="1" parent="1" source="e2x56FFFjxfBK-EjwHHD-14" target="e2x56FFFjxfBK-EjwHHD-9">
          <mxGeometry relative="1" as="geometry">
            <Array as="points">
              <mxPoint x="465" y="440" />
            </Array>
          </mxGeometry>
        </mxCell>
        <mxCell id="e2x56FFFjxfBK-EjwHHD-24" style="edgeStyle=orthogonalEdgeStyle;rounded=0;orthogonalLoop=1;jettySize=auto;html=1;entryX=0.005;entryY=0.63;entryDx=0;entryDy=0;entryPerimeter=0;" edge="1" parent="1" source="e2x56FFFjxfBK-EjwHHD-14" target="e2x56FFFjxfBK-EjwHHD-13">
          <mxGeometry relative="1" as="geometry">
            <Array as="points">
              <mxPoint x="600" y="335" />
              <mxPoint x="600" y="302" />
            </Array>
          </mxGeometry>
        </mxCell>
        <mxCell id="e2x56FFFjxfBK-EjwHHD-14" value="" style="sketch=0;html=1;dashed=0;whitespace=wrap;fillColor=#2875E2;strokeColor=#ffffff;points=[[0.005,0.63,0],[0.1,0.2,0],[0.9,0.2,0],[0.5,0,0],[0.995,0.63,0],[0.72,0.99,0],[0.5,1,0],[0.28,0.99,0]];verticalLabelPosition=bottom;align=center;verticalAlign=top;shape=mxgraph.kubernetes.icon;prIcon=svc" vertex="1" parent="1">
          <mxGeometry x="440" y="311" width="50" height="48" as="geometry" />
        </mxCell>
        <mxCell id="e2x56FFFjxfBK-EjwHHD-30" value="&lt;font style=&quot;font-size: 15px;&quot; color=&quot;#8f8f8f&quot;&gt;manged by EKS&lt;/font&gt;" style="text;html=1;strokeColor=none;fillColor=none;align=center;verticalAlign=middle;whiteSpace=wrap;rounded=0;" vertex="1" parent="1">
          <mxGeometry x="525" y="120" width="150" height="30" as="geometry" />
        </mxCell>
        <mxCell id="e2x56FFFjxfBK-EjwHHD-31" value="" style="rounded=0;whiteSpace=wrap;html=1;dashed=1;dashPattern=1 4;" vertex="1" parent="1">
          <mxGeometry x="20" y="120" width="370" height="450" as="geometry" />
        </mxCell>
        <mxCell id="e2x56FFFjxfBK-EjwHHD-40" style="edgeStyle=orthogonalEdgeStyle;rounded=0;orthogonalLoop=1;jettySize=auto;html=1;" edge="1" parent="1" source="e2x56FFFjxfBK-EjwHHD-32" target="e2x56FFFjxfBK-EjwHHD-34">
          <mxGeometry relative="1" as="geometry" />
        </mxCell>
        <mxCell id="e2x56FFFjxfBK-EjwHHD-47" style="edgeStyle=orthogonalEdgeStyle;rounded=0;orthogonalLoop=1;jettySize=auto;html=1;" edge="1" parent="1" source="e2x56FFFjxfBK-EjwHHD-32" target="e2x56FFFjxfBK-EjwHHD-33">
          <mxGeometry relative="1" as="geometry">
            <Array as="points">
              <mxPoint x="190" y="310" />
              <mxPoint x="190" y="209" />
            </Array>
          </mxGeometry>
        </mxCell>
        <mxCell id="e2x56FFFjxfBK-EjwHHD-48" style="edgeStyle=orthogonalEdgeStyle;rounded=0;orthogonalLoop=1;jettySize=auto;html=1;" edge="1" parent="1" source="e2x56FFFjxfBK-EjwHHD-32" target="e2x56FFFjxfBK-EjwHHD-35">
          <mxGeometry relative="1" as="geometry">
            <Array as="points">
              <mxPoint x="190" y="340" />
              <mxPoint x="190" y="444" />
            </Array>
          </mxGeometry>
        </mxCell>
        <mxCell id="e2x56FFFjxfBK-EjwHHD-32" value="" style="sketch=0;outlineConnect=0;fontColor=#232F3E;gradientColor=none;fillColor=#4D27AA;strokeColor=none;dashed=0;verticalLabelPosition=bottom;verticalAlign=top;align=center;html=1;fontSize=12;fontStyle=0;aspect=fixed;pointerEvents=1;shape=mxgraph.aws4.network_load_balancer;" vertex="1" parent="1">
          <mxGeometry x="30" y="288" width="78" height="78" as="geometry" />
        </mxCell>
        <mxCell id="e2x56FFFjxfBK-EjwHHD-50" style="edgeStyle=orthogonalEdgeStyle;rounded=0;orthogonalLoop=1;jettySize=auto;html=1;entryX=0.5;entryY=0;entryDx=0;entryDy=0;entryPerimeter=0;" edge="1" parent="1" source="e2x56FFFjxfBK-EjwHHD-33" target="e2x56FFFjxfBK-EjwHHD-14">
          <mxGeometry relative="1" as="geometry" />
        </mxCell>
        <mxCell id="e2x56FFFjxfBK-EjwHHD-33" value="" style="sketch=0;outlineConnect=0;fontColor=#232F3E;gradientColor=none;fillColor=#4D27AA;strokeColor=none;dashed=0;verticalLabelPosition=bottom;verticalAlign=top;align=center;html=1;fontSize=12;fontStyle=0;aspect=fixed;pointerEvents=1;shape=mxgraph.aws4.application_load_balancer;" vertex="1" parent="1">
          <mxGeometry x="290" y="170" width="78" height="78" as="geometry" />
        </mxCell>
        <mxCell id="e2x56FFFjxfBK-EjwHHD-51" style="edgeStyle=orthogonalEdgeStyle;rounded=0;orthogonalLoop=1;jettySize=auto;html=1;" edge="1" parent="1" source="e2x56FFFjxfBK-EjwHHD-34" target="e2x56FFFjxfBK-EjwHHD-14">
          <mxGeometry relative="1" as="geometry" />
        </mxCell>
        <mxCell id="e2x56FFFjxfBK-EjwHHD-34" value="" style="sketch=0;outlineConnect=0;fontColor=#232F3E;gradientColor=none;fillColor=#4D27AA;strokeColor=none;dashed=0;verticalLabelPosition=bottom;verticalAlign=top;align=center;html=1;fontSize=12;fontStyle=0;aspect=fixed;pointerEvents=1;shape=mxgraph.aws4.application_load_balancer;" vertex="1" parent="1">
          <mxGeometry x="290" y="281" width="78" height="78" as="geometry" />
        </mxCell>
        <mxCell id="e2x56FFFjxfBK-EjwHHD-52" style="edgeStyle=orthogonalEdgeStyle;rounded=0;orthogonalLoop=1;jettySize=auto;html=1;entryX=0.28;entryY=0.99;entryDx=0;entryDy=0;entryPerimeter=0;" edge="1" parent="1" source="e2x56FFFjxfBK-EjwHHD-35" target="e2x56FFFjxfBK-EjwHHD-14">
          <mxGeometry relative="1" as="geometry" />
        </mxCell>
        <mxCell id="e2x56FFFjxfBK-EjwHHD-35" value="" style="sketch=0;outlineConnect=0;fontColor=#232F3E;gradientColor=none;fillColor=#4D27AA;strokeColor=none;dashed=0;verticalLabelPosition=bottom;verticalAlign=top;align=center;html=1;fontSize=12;fontStyle=0;aspect=fixed;pointerEvents=1;shape=mxgraph.aws4.application_load_balancer;" vertex="1" parent="1">
          <mxGeometry x="290" y="405" width="78" height="78" as="geometry" />
        </mxCell>
        <mxCell id="e2x56FFFjxfBK-EjwHHD-36" value="&lt;font style=&quot;font-size: 15px;&quot;&gt;Netwrok Load Balncer&lt;/font&gt;" style="text;html=1;strokeColor=none;fillColor=none;align=center;verticalAlign=middle;whiteSpace=wrap;rounded=0;" vertex="1" parent="1">
          <mxGeometry x="30" y="372" width="110" height="30" as="geometry" />
        </mxCell>
        <mxCell id="e2x56FFFjxfBK-EjwHHD-37" value="&lt;font style=&quot;font-size: 15px;&quot;&gt;Target Group 1&lt;/font&gt;" style="text;html=1;strokeColor=none;fillColor=none;align=center;verticalAlign=middle;whiteSpace=wrap;rounded=0;" vertex="1" parent="1">
          <mxGeometry x="265.5" y="248" width="129" height="30" as="geometry" />
        </mxCell>
        <mxCell id="e2x56FFFjxfBK-EjwHHD-38" value="&lt;font style=&quot;font-size: 15px;&quot;&gt;Target Group 2&lt;/font&gt;" style="text;html=1;strokeColor=none;fillColor=none;align=center;verticalAlign=middle;whiteSpace=wrap;rounded=0;" vertex="1" parent="1">
          <mxGeometry x="270" y="359" width="120" height="30" as="geometry" />
        </mxCell>
        <mxCell id="e2x56FFFjxfBK-EjwHHD-39" value="&lt;font style=&quot;font-size: 15px;&quot;&gt;Target Group 3&lt;/font&gt;" style="text;html=1;strokeColor=none;fillColor=none;align=center;verticalAlign=middle;whiteSpace=wrap;rounded=0;" vertex="1" parent="1">
          <mxGeometry x="275.5" y="483" width="109" height="30" as="geometry" />
        </mxCell>
        <mxCell id="e2x56FFFjxfBK-EjwHHD-55" value="" style="rounded=0;whiteSpace=wrap;html=1;fillColor=none;dashed=1;dashPattern=1 4;" vertex="1" parent="1">
          <mxGeometry x="400" y="120" width="390" height="450" as="geometry" />
        </mxCell>
        <mxCell id="e2x56FFFjxfBK-EjwHHD-56" value="" style="outlineConnect=0;dashed=0;verticalLabelPosition=bottom;verticalAlign=top;align=center;html=1;shape=mxgraph.aws3.cloud_2;fillColor=#F58534;gradientColor=none;" vertex="1" parent="1">
          <mxGeometry x="10" y="60" width="50" height="40" as="geometry" />
        </mxCell>
      </root>
    </mxGraphModel>
  </diagram>
</mxfile>
